<svg id="a3f4169a-5e5e-4255-abcc-1b8759c50498" data-name="Layer 1" xmlns="http://www.w3.org/2000/svg" width="1042.03903" height="709.08851" viewBox="0 0 1042.03903 709.08851"><title>hacker_mind</title><path class="pantaloni" d="M464.48048,499.79525v52l7,32s-1,20,0,26-1,16-7,16-9,15-9,15-2,6-7,7-5,0-5,0l-4,10-83,55,16,40s25-9,27-12,19,4,19-3,3-25,9-26,56-24,56-24,26-29,28-40,11-42,11-42l25,42v84l-4,45,44-6s-4-28,0-32,10-52,6-58,2-33,0-37-1-33-6-41-35-90-35-90Z" transform="translate(-78.98048 -95.45574)" fill="#2f2e41"/><path class="scarpa-sx" d="M549.48048,774.79525s-15,25-5,28,29,0,31,0,38,1,38,1,24-5,24-12-15-7-20-8-36-13-36-13Z" transform="translate(-78.98048 -95.45574)" fill="#3f3d56"/><path class="scarpa-dx" d="M361.073,713.92342s-28.90243-3.82749-27.68058,6.54107,11.52662,26.61084,12.32156,28.44607c.53837,1.24292,6.85438,16.97832,10.87521,27.00587a58.47551,58.47551,0,0,0,12.83544,19.65205c3.93123,3.92912,8.216,7.07932,11.02623,5.86207,6.4233-2.78229.46126-16.54652-.60847-21.53206s-2.37991-38.20126-2.37991-38.20126Z" transform="translate(-78.98048 -95.45574)" fill="#3f3d56"/><path d="M561.98048,334.29525l32-74s-3-7-10-6c0,0-9.5-24.5-27.5-24.5,0,0-27-15-35,0,0,0-17,15-16,29s2,24,2,24-16,2-13,10,4,8,0,11l-4,3s-83,75-37,185l4,17v16s101,1,101,0-2-7,2-11,4-10,4-10-4-20-2-26,3-32-1-38-2-54-2-54l9-17-3-10-3-10Z" transform="translate(-78.98048 -95.45574)" fill="#cfcce0"/><path d="M553.48048,534.79525s-12-33-11-39-2-18-2-18l-4-81s17-72-21-84c0,0-9.61547,4.19556-17.49389,17.697-7.79077,3.47015-17.24439,12.25226-19.50611,34.303-4,39,14,139,23,156s15,29,15,29l9.4065-4.18066c.38843.7705.5935,1.18066.5935,1.18066Z" transform="translate(-78.98048 -95.45574)" opacity="0.1"/><circle cx="480" cy="226.83951" r="3" fill="#fff"/><path d="M522.98048,538.29525l8,17s18-6,18-9-8-16-8-16Z" transform="translate(-78.98048 -95.45574)" fill="#deb887"/><path d="M511.48048,312.79525s-23,10-27,49,14,139,23,156,15,29,15,29l27-12s-12-33-11-39-2-18-2-18l-4-81S549.48048,324.79525,511.48048,312.79525Z" transform="translate(-78.98048 -95.45574)" fill="#cfcce1"/></svg>